<svg width="520" height="48" viewBox="0 0 520 48" fill="none" xmlns="http://www.w3.org/2000/svg">
<rect width="520" height="48" fill="black"/>
<rect x="2" y="14" width="34" height="34" rx="17" fill="black"/>
<g filter="url(#filter0_d_521_751)">
<path d="M25.4583 22.6667H12.5417C11.5083 22.6667 10.6667 23.5083 10.6667 24.5417V37.4583C10.6667 38.4917 11.5083 39.3333 12.5417 39.3333H25.4583C26.4917 39.3333 27.3333 38.4917 27.3333 37.4583V24.5417C27.3333 23.5083 26.4917 22.6667 25.4583 22.6667ZM12.5417 23.9167H25.4583C25.8025 23.9167 26.0833 24.1975 26.0833 24.5417V32.605L22.8683 29.39C22.7517 29.2733 22.5933 29.2067 22.4267 29.2067H22.4242C22.2575 29.2067 22.0967 29.2733 21.9808 29.3933L18.3833 33.0467L16.8725 31.5417C16.7558 31.425 16.5975 31.3583 16.4308 31.3583C16.27 31.3333 16.1017 31.425 15.985 31.5475L11.9167 35.7017V24.5417C11.9167 24.1975 12.1975 23.9167 12.5417 23.9167ZM11.9217 37.4833L16.4367 32.8717L21.6717 38.0833H12.5417C12.2067 38.0833 11.9358 37.815 11.9217 37.4833ZM25.4583 38.0833H23.4417L19.2692 33.9275L22.4292 30.7192L26.0833 34.3725V37.4583C26.0833 37.8025 25.8025 38.0833 25.4583 38.0833Z" fill="#1D9BF0"/>
<path d="M16.39 29.2092C17.0997 29.2092 17.675 28.6339 17.675 27.9242C17.675 27.2145 17.0997 26.6392 16.39 26.6392C15.6803 26.6392 15.105 27.2145 15.105 27.9242C15.105 28.6339 15.6803 29.2092 16.39 29.2092Z" fill="#1D9BF0"/>
</g>
<rect x="36" y="14" width="34" height="34" rx="17" fill="black"/>
<path d="M58.8333 29.75V28.3333H55.1666V33.6667H56.5833V32H58.25V30.5833H56.5833V29.75H58.8333ZM52.75 28.3333H54.1666V33.6667H52.75V28.3333ZM49.75 29.6667C50.0833 29.6667 50.5 29.8333 50.75 30.0833L51.75 29.25C51.25 28.6667 50.5 28.3333 49.75 28.3333C48.25 28.3333 47.0833 29.5 47.0833 31C47.0833 32.5 48.25 33.6667 49.75 33.6667C50.5833 33.6667 51.25 33.3333 51.75 32.75V30.6667H49.4166V31.6667H50.4166V32.1667C50.25 32.25 50 32.3333 49.75 32.3333C49 32.3333 48.4166 31.75 48.4166 31C48.4166 30.3333 49 29.6667 49.75 29.6667Z" fill="#1D9BF0"/>
<path d="M60.0833 22.6833H45.9167C44.8833 22.6833 44.0417 23.5225 44.0417 24.5558V37.4783C44.0417 38.51 44.8833 39.35 45.9167 39.35H60.0833C61.1167 39.35 61.9583 38.51 61.9583 37.4783V24.5558C61.9583 23.5225 61.1167 22.6833 60.0833 22.6833ZM60.7083 37.4783C60.7083 37.82 60.4283 38.1 60.0833 38.1H45.9167C45.5717 38.1 45.2917 37.82 45.2917 37.4783V24.5558C45.2917 24.2125 45.5717 23.9333 45.9167 23.9333H60.0833C60.4283 23.9333 60.7083 24.2125 60.7083 24.5558V37.4783Z" fill="#1D9BF0"/>
<rect x="70" y="14" width="34" height="34" rx="17" fill="black"/>
<path d="M93.8517 28.6333H92.74C92.7525 28.5583 92.7633 28.4817 92.7633 28.4025V26.475C92.7633 25.6583 92.0992 24.9942 91.2817 24.9942H79.9167V23.7983C79.9167 23.4533 79.6367 23.1733 79.2917 23.1733C78.9467 23.1733 78.6667 23.4533 78.6667 23.7983V38.3583C78.6667 38.7042 78.9467 38.9833 79.2917 38.9833C79.6367 38.9833 79.9167 38.7042 79.9167 38.3583V37.1633H88.7133C89.53 37.1633 90.195 36.4992 90.195 35.6825V33.755C90.195 33.6758 90.1833 33.5992 90.1717 33.5233H93.8525C94.6692 33.5233 95.3342 32.8583 95.3342 32.0417V30.1167C95.3342 29.2975 94.67 28.6333 93.8525 28.6333H93.8517ZM91.2833 26.2442C91.41 26.2442 91.5142 26.3475 91.5142 26.475V28.4C91.5142 28.5283 91.41 28.6333 91.2825 28.6333H79.9167V26.2417H91.2833V26.2442ZM88.9442 33.7558V35.6825C88.9442 35.81 88.84 35.9133 88.7125 35.9133H79.9167V33.5233H88.7133C88.8408 33.5233 88.9442 33.6283 88.9442 33.7567V33.7558ZM94.0833 32.0417C94.0833 32.1692 93.9792 32.2725 93.8517 32.2725H79.9167V29.8833H93.8517C93.9792 29.8833 94.0833 29.9867 94.0833 30.1142V32.0417Z" fill="#1D9BF0"/>
<rect x="104" y="14" width="34" height="34" rx="17" fill="black"/>
<path d="M121 39.9583C116.06 39.9583 112.042 35.94 112.042 31C112.042 26.06 116.06 22.0417 121 22.0417C125.94 22.0417 129.958 26.06 129.958 31C129.958 35.94 125.94 39.9583 121 39.9583ZM121 23.2917C116.75 23.2917 113.292 26.75 113.292 31C113.292 35.25 116.75 38.7083 121 38.7083C125.25 38.7083 128.708 35.25 128.708 31C128.708 26.75 125.25 23.2917 121 23.2917Z" fill="#1D9BF0"/>
<path d="M121 35.2625C119.423 35.2625 117.972 34.4708 117.12 33.1425C116.933 32.8525 117.017 32.4675 117.308 32.28C117.598 32.0917 117.985 32.1767 118.172 32.4683C118.794 33.4367 119.852 34.0142 121.001 34.0142C122.15 34.0142 123.207 33.4367 123.831 32.4692C124.017 32.1775 124.404 32.0942 124.694 32.2817C124.986 32.4683 125.069 32.855 124.882 33.145C124.028 34.4733 122.577 35.2658 121.001 35.2658L121 35.2625Z" fill="#1D9BF0"/>
<path d="M123.282 30.1133C123.962 30.1133 124.513 29.5619 124.513 28.8817C124.513 28.2014 123.962 27.65 123.282 27.65C122.601 27.65 122.05 28.2014 122.05 28.8817C122.05 29.5619 122.601 30.1133 123.282 30.1133Z" fill="#1D9BF0"/>
<path d="M118.718 30.1133C119.399 30.1133 119.95 29.5619 119.95 28.8817C119.95 28.2014 119.399 27.65 118.718 27.65C118.038 27.65 117.487 28.2014 117.487 28.8817C117.487 29.5619 118.038 30.1133 118.718 30.1133Z" fill="#1D9BF0"/>
<rect x="138" y="14" width="34" height="34" rx="17" fill="black"/>
<g clip-path="url(#clip0_521_751)">
<path d="M113.417 36C113.333 35.9167 113.333 35.9167 113.333 35.8333C113.417 35.8333 113.417 35.9167 113.417 36ZM160 22.8333H158.917V22.5833C158.917 22.25 158.667 21.9167 158.25 21.9167C157.917 21.9167 157.583 22.1667 157.583 22.5833V22.8333H151.417V22.5833C151.417 22.25 151.167 21.9167 150.75 21.9167C150.417 21.9167 150.083 22.1667 150.083 22.5833V22.8333H149C147.833 22.8333 146.917 23.75 146.917 24.9167V35.8333C146.917 37 147.833 37.9167 149 37.9167H151.417C151.75 37.9167 152.083 37.6667 152.083 37.25C152.083 36.9167 151.833 36.5833 151.417 36.5833H149C148.5 36.5833 148.167 36.1667 148.167 35.75V27.5833C148.167 27.3333 148.5 27 149 27H160C160.5 27 160.833 27.3333 160.833 27.5833V29.0833C160.833 29.4167 161.083 29.75 161.5 29.75C161.833 29.75 162.167 29.5 162.167 29.0833V24.9167C162.083 23.75 161.167 22.8333 160 22.8333ZM160.833 25.9167C160.583 25.8333 160.25 25.75 160 25.75H149C148.667 25.75 148.417 25.8333 148.167 25.9167V24.9167C148.167 24.4167 148.583 24.0833 149 24.0833H150.083V24.5C150.083 24.8333 150.333 25.1667 150.75 25.1667C151.083 25.1667 151.417 24.9167 151.417 24.5V24.0833H157.667V24.5C157.667 24.8333 157.917 25.1667 158.333 25.1667C158.667 25.1667 159 24.9167 159 24.5V24.0833H160C160.5 24.0833 160.833 24.5 160.833 24.9167V25.9167Z" fill="#1D9BF0"/>
<path d="M157.917 29.6667C155.083 29.6667 152.75 32 152.75 34.8333C152.75 37.6667 155.083 40 157.917 40C160.75 40 163.083 37.6667 163.083 34.8333C163.083 32 160.75 29.6667 157.917 29.6667ZM157.917 38.8333C155.75 38.8333 154 37.0833 154 34.9167C154 32.75 155.75 31 157.917 31C160.083 31 161.833 32.75 161.833 34.9167C161.833 37 160.083 38.8333 157.917 38.8333Z" fill="#1D9BF0"/>
<path d="M160.75 36.5833C160.667 36.75 160.417 36.9167 160.25 36.9167C160.167 36.9167 160 36.9167 159.917 36.8333L157.333 35.1667V32.6667C157.333 32.3333 157.583 32 158 32C158.333 32 158.667 32.25 158.667 32.6667V34.5L160.667 35.75C160.833 35.9167 160.917 36.25 160.75 36.5833Z" fill="#1D9BF0"/>
</g>
<g opacity="0.5">
<rect x="439" y="12" width="79" height="36" rx="18" fill="#1D9BF0"/>
<path d="M461.057 35V26.3208H464.229V24.4312H455.674V26.3208H458.845V35H461.057ZM476.68 26.9214H474.563L473.362 32.7148H473.23L471.809 26.9214H469.773L468.359 32.7148H468.228L467.026 26.9214H464.866L467.019 35H469.26L470.688 29.4263H470.82L472.263 35H474.534L476.68 26.9214ZM481.36 28.3789C482.356 28.3789 483 29.0454 483.044 30.1147H479.602C479.675 29.0674 480.371 28.3789 481.36 28.3789ZM483.088 32.7002C482.861 33.2349 482.283 33.5352 481.44 33.5352C480.327 33.5352 479.624 32.7881 479.595 31.5869V31.4771H485.139V30.8252C485.139 28.2617 483.733 26.7456 481.353 26.7456C478.95 26.7456 477.471 28.3716 477.471 31.001C477.471 33.623 478.921 35.1758 481.382 35.1758C483.359 35.1758 484.751 34.2236 485.073 32.7002H483.088ZM490.383 28.3789C491.379 28.3789 492.024 29.0454 492.068 30.1147H488.625C488.699 29.0674 489.395 28.3789 490.383 28.3789ZM492.112 32.7002C491.885 33.2349 491.306 33.5352 490.464 33.5352C489.351 33.5352 488.647 32.7881 488.618 31.5869V31.4771H494.163V30.8252C494.163 28.2617 492.756 26.7456 490.376 26.7456C487.974 26.7456 486.494 28.3716 486.494 31.001C486.494 33.623 487.944 35.1758 490.405 35.1758C492.383 35.1758 493.774 34.2236 494.097 32.7002H492.112ZM496.521 25.0024V27.002H495.261V28.6792H496.521V32.8174C496.521 34.3921 497.297 35.0293 499.26 35.0293C499.67 35.0293 500.066 34.9854 500.33 34.9341V33.3081C500.125 33.3301 499.978 33.3374 499.7 33.3374C498.975 33.3374 498.652 33.0151 498.652 32.312V28.6792H500.33V27.002H498.652V25.0024H496.521Z" fill="white"/>
</g>
<defs>
<filter id="filter0_d_521_751" x="5" y="21" width="28" height="28" filterUnits="userSpaceOnUse" color-interpolation-filters="sRGB">
<feFlood flood-opacity="0" result="BackgroundImageFix"/>
<feColorMatrix in="SourceAlpha" type="matrix" values="0 0 0 0 0 0 0 0 0 0 0 0 0 0 0 0 0 0 127 0" result="hardAlpha"/>
<feOffset dy="4"/>
<feGaussianBlur stdDeviation="2"/>
<feComposite in2="hardAlpha" operator="out"/>
<feColorMatrix type="matrix" values="0 0 0 0 0 0 0 0 0 0 0 0 0 0 0 0 0 0 0.25 0"/>
<feBlend mode="normal" in2="BackgroundImageFix" result="effect1_dropShadow_521_751"/>
<feBlend mode="normal" in="SourceGraphic" in2="effect1_dropShadow_521_751" result="shape"/>
</filter>
<clipPath id="clip0_521_751">
<rect width="20" height="20" fill="white" transform="translate(145 21)"/>
</clipPath>
</defs>
</svg>
